# xmcd
#
# Track frame offsets: 
#        150
#        21483
#        41390
#        65132
#        86729
#        101123
#        121303
#        141886
#
# Disc length: 2132 seconds
#
# Revision: 0
# Processed by: cddbd v1.5.2PL0 Copyright (c) Steve Scherf et al.
# Submitted via: ExactAudioCopy v1.3
#
DISCID=72085208
DTITLE=True Bypass - Toby
DYEAR=2012
DGENRE=Indie
TTITLE0=You knew
TTITLE1=What do you think the chances are
TTITLE2=It Isn't True
TTITLE3=Hopes Up High
TTITLE4=Trappers
TTITLE5=I cried enough
TTITLE6=Our Secret Secret
TTITLE7=Would You
EXTD=
EXTT0=
EXTT1=
EXTT2=
EXTT3=
EXTT4=
EXTT5=
EXTT6=
EXTT7=
PLAYORDER=
